<svg width="197" height="19" viewBox="0 0 197 19" fill="none" xmlns="http://www.w3.org/2000/svg">
<path d="M13.08 6.624H16.728C16.616 5.632 16.344 4.752 15.912 3.984C15.48 3.216 14.928 2.576 14.256 2.064C13.6 1.536 12.848 1.136 12 0.863999C11.168 0.592 10.28 0.456 9.336 0.456C8.024 0.456 6.84 0.688 5.784 1.152C4.744 1.616 3.864 2.256 3.144 3.072C2.424 3.888 1.872 4.848 1.488 5.952C1.104 7.04 0.912 8.224 0.912 9.504C0.912 10.752 1.104 11.92 1.488 13.008C1.872 14.08 2.424 15.016 3.144 15.816C3.864 16.616 4.744 17.248 5.784 17.712C6.84 18.16 8.024 18.384 9.336 18.384C10.392 18.384 11.36 18.224 12.24 17.904C13.12 17.584 13.888 17.12 14.544 16.512C15.2 15.904 15.728 15.168 16.128 14.304C16.528 13.44 16.776 12.472 16.872 11.4H13.224C13.08 12.552 12.68 13.48 12.024 14.184C11.384 14.888 10.488 15.24 9.336 15.24C8.488 15.24 7.768 15.08 7.176 14.76C6.584 14.424 6.104 13.984 5.736 13.44C5.368 12.896 5.096 12.288 4.92 11.616C4.76 10.928 4.68 10.224 4.68 9.504C4.68 8.752 4.76 8.024 4.92 7.32C5.096 6.616 5.368 5.992 5.736 5.448C6.104 4.888 6.584 4.448 7.176 4.128C7.768 3.792 8.488 3.624 9.336 3.624C9.8 3.624 10.24 3.704 10.656 3.864C11.088 4.008 11.472 4.216 11.808 4.488C12.144 4.76 12.424 5.08 12.648 5.448C12.872 5.8 13.016 6.192 13.08 6.624ZM22.1091 11.808C22.1091 11.312 22.1571 10.824 22.2531 10.344C22.3491 9.864 22.5091 9.44 22.7331 9.072C22.9731 8.704 23.2851 8.408 23.6691 8.184C24.0531 7.944 24.5331 7.824 25.1091 7.824C25.6851 7.824 26.1651 7.944 26.5491 8.184C26.9491 8.408 27.2611 8.704 27.4851 9.072C27.7251 9.44 27.8931 9.864 27.9891 10.344C28.0851 10.824 28.1331 11.312 28.1331 11.808C28.1331 12.304 28.0851 12.792 27.9891 13.272C27.8931 13.736 27.7251 14.16 27.4851 14.544C27.2611 14.912 26.9491 15.208 26.5491 15.432C26.1651 15.656 25.6851 15.768 25.1091 15.768C24.5331 15.768 24.0531 15.656 23.6691 15.432C23.2851 15.208 22.9731 14.912 22.7331 14.544C22.5091 14.16 22.3491 13.736 22.2531 13.272C22.1571 12.792 22.1091 12.304 22.1091 11.808ZM18.7011 11.808C18.7011 12.8 18.8531 13.696 19.1571 14.496C19.4611 15.296 19.8931 15.984 20.4531 16.56C21.0131 17.12 21.6851 17.552 22.4691 17.856C23.2531 18.16 24.1331 18.312 25.1091 18.312C26.0851 18.312 26.9651 18.16 27.7491 17.856C28.5491 17.552 29.2291 17.12 29.7891 16.56C30.3491 15.984 30.7811 15.296 31.0851 14.496C31.3891 13.696 31.5411 12.8 31.5411 11.808C31.5411 10.816 31.3891 9.92 31.0851 9.12C30.7811 8.304 30.3491 7.616 29.7891 7.056C29.2291 6.48 28.5491 6.04 27.7491 5.736C26.9651 5.416 26.0851 5.256 25.1091 5.256C24.1331 5.256 23.2531 5.416 22.4691 5.736C21.6851 6.04 21.0131 6.48 20.4531 7.056C19.8931 7.616 19.4611 8.304 19.1571 9.12C18.8531 9.92 18.7011 10.816 18.7011 11.808ZM33.8529 0.863999V18H37.2609V0.863999H33.8529ZM40.0404 0.863999V18H43.4484V0.863999H40.0404ZM54.4839 10.464H48.9399C48.9559 10.224 49.0039 9.952 49.0839 9.648C49.1799 9.344 49.3319 9.056 49.5399 8.784C49.7639 8.512 50.0519 8.288 50.4039 8.112C50.7719 7.92 51.2279 7.824 51.7719 7.824C52.6039 7.824 53.2199 8.048 53.6199 8.496C54.0359 8.944 54.3239 9.6 54.4839 10.464ZM48.9399 12.624H57.8919C57.9559 11.664 57.8759 10.744 57.6519 9.864C57.4279 8.984 57.0599 8.2 56.5479 7.512C56.0519 6.824 55.4119 6.28 54.6279 5.88C53.8439 5.464 52.9239 5.256 51.8679 5.256C50.9239 5.256 50.0599 5.424 49.2759 5.76C48.5079 6.096 47.8439 6.56 47.2839 7.152C46.7239 7.728 46.2919 8.416 45.9879 9.216C45.6839 10.016 45.5319 10.88 45.5319 11.808C45.5319 12.768 45.6759 13.648 45.9639 14.448C46.2679 15.248 46.6919 15.936 47.2359 16.512C47.7799 17.088 48.4439 17.536 49.2279 17.856C50.0119 18.16 50.8919 18.312 51.8679 18.312C53.2759 18.312 54.4759 17.992 55.4679 17.352C56.4599 16.712 57.1959 15.648 57.6759 14.16H54.6759C54.5639 14.544 54.2599 14.912 53.7639 15.264C53.2679 15.6 52.6759 15.768 51.9879 15.768C51.0279 15.768 50.2919 15.52 49.7799 15.024C49.2679 14.528 48.9879 13.728 48.9399 12.624ZM68.3612 9.96H71.6972C71.6492 9.16 71.4572 8.472 71.1212 7.896C70.7852 7.304 70.3452 6.816 69.8012 6.432C69.2732 6.032 68.6652 5.736 67.9772 5.544C67.3052 5.352 66.6012 5.256 65.8652 5.256C64.8572 5.256 63.9612 5.424 63.1772 5.76C62.3932 6.096 61.7292 6.568 61.1852 7.176C60.6412 7.768 60.2252 8.48 59.9372 9.312C59.6652 10.128 59.5292 11.016 59.5292 11.976C59.5292 12.904 59.6812 13.76 59.9852 14.544C60.2892 15.312 60.7132 15.976 61.2572 16.536C61.8012 17.096 62.4572 17.536 63.2252 17.856C64.0092 18.16 64.8652 18.312 65.7932 18.312C67.4412 18.312 68.7932 17.88 69.8492 17.016C70.9052 16.152 71.5452 14.896 71.7692 13.248H68.4812C68.3692 14.016 68.0892 14.632 67.6412 15.096C67.2092 15.544 66.5852 15.768 65.7692 15.768C65.2412 15.768 64.7932 15.648 64.4252 15.408C64.0572 15.168 63.7612 14.864 63.5372 14.496C63.3292 14.112 63.1772 13.688 63.0812 13.224C62.9852 12.76 62.9372 12.304 62.9372 11.856C62.9372 11.392 62.9852 10.928 63.0812 10.464C63.1772 9.984 63.3372 9.552 63.5612 9.168C63.8012 8.768 64.1052 8.448 64.4732 8.208C64.8412 7.952 65.2972 7.824 65.8412 7.824C67.2972 7.824 68.1372 8.536 68.3612 9.96ZM78.0144 5.592V1.872H74.6064V5.592H72.5424V7.872H74.6064V15.192C74.6064 15.816 74.7104 16.32 74.9184 16.704C75.1264 17.088 75.4064 17.384 75.7584 17.592C76.1264 17.8 76.5424 17.936 77.0064 18C77.4864 18.08 77.9904 18.12 78.5184 18.12C78.8544 18.12 79.1984 18.112 79.5504 18.096C79.9024 18.08 80.2224 18.048 80.5104 18V15.36C80.3504 15.392 80.1824 15.416 80.0064 15.432C79.8304 15.448 79.6464 15.456 79.4544 15.456C78.8784 15.456 78.4944 15.36 78.3024 15.168C78.1104 14.976 78.0144 14.592 78.0144 14.016V7.872H80.5104V5.592H78.0144ZM85.6359 3.672V0.863999H82.2279V3.672H85.6359ZM82.2279 5.592V18H85.6359V5.592H82.2279ZM95.1834 18L99.3834 5.592H95.9994L93.3834 14.064H93.3354L90.7194 5.592H87.1434L91.3914 18H95.1834ZM109.14 10.464H103.596C103.612 10.224 103.66 9.952 103.74 9.648C103.836 9.344 103.988 9.056 104.196 8.784C104.42 8.512 104.708 8.288 105.06 8.112C105.428 7.92 105.884 7.824 106.428 7.824C107.26 7.824 107.876 8.048 108.276 8.496C108.692 8.944 108.98 9.6 109.14 10.464ZM103.596 12.624H112.548C112.612 11.664 112.532 10.744 112.308 9.864C112.084 8.984 111.716 8.2 111.204 7.512C110.708 6.824 110.068 6.28 109.284 5.88C108.5 5.464 107.58 5.256 106.524 5.256C105.58 5.256 104.716 5.424 103.932 5.76C103.164 6.096 102.5 6.56 101.94 7.152C101.38 7.728 100.948 8.416 100.644 9.216C100.34 10.016 100.188 10.88 100.188 11.808C100.188 12.768 100.332 13.648 100.62 14.448C100.924 15.248 101.348 15.936 101.892 16.512C102.436 17.088 103.1 17.536 103.884 17.856C104.668 18.16 105.548 18.312 106.524 18.312C107.932 18.312 109.132 17.992 110.124 17.352C111.116 16.712 111.852 15.648 112.332 14.16H109.332C109.22 14.544 108.916 14.912 108.42 15.264C107.924 15.6 107.332 15.768 106.644 15.768C105.684 15.768 104.948 15.52 104.436 15.024C103.924 14.528 103.644 13.728 103.596 12.624Z" fill="black"></path>
<path d="M119.249 11.376L121.481 5.088H121.529L123.689 11.376H119.249ZM119.609 0.863999L113.129 18H116.921L118.265 14.184H124.673L125.969 18H129.881L123.473 0.863999H119.609ZM139.447 9.96H142.783C142.735 9.16 142.543 8.472 142.207 7.896C141.871 7.304 141.431 6.816 140.887 6.432C140.359 6.032 139.751 5.736 139.063 5.544C138.391 5.352 137.687 5.256 136.951 5.256C135.943 5.256 135.047 5.424 134.263 5.76C133.479 6.096 132.815 6.568 132.271 7.176C131.727 7.768 131.311 8.48 131.023 9.312C130.751 10.128 130.615 11.016 130.615 11.976C130.615 12.904 130.767 13.76 131.071 14.544C131.375 15.312 131.799 15.976 132.343 16.536C132.887 17.096 133.543 17.536 134.311 17.856C135.095 18.16 135.951 18.312 136.879 18.312C138.527 18.312 139.879 17.88 140.935 17.016C141.991 16.152 142.631 14.896 142.855 13.248H139.567C139.455 14.016 139.175 14.632 138.727 15.096C138.295 15.544 137.671 15.768 136.855 15.768C136.327 15.768 135.879 15.648 135.511 15.408C135.143 15.168 134.847 14.864 134.623 14.496C134.415 14.112 134.263 13.688 134.167 13.224C134.071 12.76 134.023 12.304 134.023 11.856C134.023 11.392 134.071 10.928 134.167 10.464C134.263 9.984 134.423 9.552 134.647 9.168C134.887 8.768 135.191 8.448 135.559 8.208C135.927 7.952 136.383 7.824 136.927 7.824C138.383 7.824 139.223 8.536 139.447 9.96ZM153.228 9.96H156.564C156.516 9.16 156.324 8.472 155.988 7.896C155.652 7.304 155.212 6.816 154.668 6.432C154.14 6.032 153.532 5.736 152.844 5.544C152.172 5.352 151.468 5.256 150.732 5.256C149.724 5.256 148.828 5.424 148.044 5.76C147.26 6.096 146.596 6.568 146.052 7.176C145.508 7.768 145.092 8.48 144.804 9.312C144.532 10.128 144.396 11.016 144.396 11.976C144.396 12.904 144.548 13.76 144.852 14.544C145.156 15.312 145.58 15.976 146.124 16.536C146.668 17.096 147.324 17.536 148.092 17.856C148.876 18.16 149.732 18.312 150.66 18.312C152.308 18.312 153.66 17.88 154.716 17.016C155.772 16.152 156.412 14.896 156.636 13.248H153.348C153.236 14.016 152.956 14.632 152.508 15.096C152.076 15.544 151.452 15.768 150.636 15.768C150.108 15.768 149.66 15.648 149.292 15.408C148.924 15.168 148.628 14.864 148.404 14.496C148.196 14.112 148.044 13.688 147.948 13.224C147.852 12.76 147.804 12.304 147.804 11.856C147.804 11.392 147.852 10.928 147.948 10.464C148.044 9.984 148.204 9.552 148.428 9.168C148.668 8.768 148.972 8.448 149.34 8.208C149.708 7.952 150.164 7.824 150.708 7.824C152.164 7.824 153.004 8.536 153.228 9.96ZM166.914 10.464H161.37C161.386 10.224 161.434 9.952 161.514 9.648C161.61 9.344 161.762 9.056 161.97 8.784C162.194 8.512 162.482 8.288 162.834 8.112C163.202 7.92 163.658 7.824 164.202 7.824C165.034 7.824 165.65 8.048 166.05 8.496C166.466 8.944 166.754 9.6 166.914 10.464ZM161.37 12.624H170.322C170.386 11.664 170.306 10.744 170.082 9.864C169.858 8.984 169.49 8.2 168.978 7.512C168.482 6.824 167.842 6.28 167.058 5.88C166.274 5.464 165.354 5.256 164.298 5.256C163.354 5.256 162.49 5.424 161.706 5.76C160.938 6.096 160.274 6.56 159.714 7.152C159.154 7.728 158.722 8.416 158.418 9.216C158.114 10.016 157.962 10.88 157.962 11.808C157.962 12.768 158.106 13.648 158.394 14.448C158.698 15.248 159.122 15.936 159.666 16.512C160.21 17.088 160.874 17.536 161.658 17.856C162.442 18.16 163.322 18.312 164.298 18.312C165.706 18.312 166.906 17.992 167.898 17.352C168.89 16.712 169.626 15.648 170.106 14.16H167.106C166.994 14.544 166.69 14.912 166.194 15.264C165.698 15.6 165.106 15.768 164.418 15.768C163.458 15.768 162.722 15.52 162.21 15.024C161.698 14.528 161.418 13.728 161.37 12.624ZM174.983 13.968H171.743C171.775 14.8 171.959 15.496 172.295 16.056C172.647 16.6 173.087 17.04 173.615 17.376C174.159 17.712 174.775 17.952 175.463 18.096C176.151 18.24 176.855 18.312 177.575 18.312C178.279 18.312 178.967 18.24 179.639 18.096C180.327 17.968 180.935 17.736 181.463 17.4C181.991 17.064 182.415 16.624 182.735 16.08C183.071 15.52 183.239 14.832 183.239 14.016C183.239 13.44 183.127 12.96 182.903 12.576C182.679 12.176 182.383 11.848 182.015 11.592C181.647 11.32 181.223 11.104 180.743 10.944C180.279 10.784 179.799 10.648 179.303 10.536C178.823 10.424 178.351 10.32 177.887 10.224C177.423 10.128 177.007 10.024 176.639 9.912C176.287 9.784 175.999 9.624 175.775 9.432C175.551 9.24 175.439 8.992 175.439 8.688C175.439 8.432 175.503 8.232 175.631 8.088C175.759 7.928 175.911 7.808 176.087 7.728C176.279 7.648 176.487 7.6 176.711 7.584C176.935 7.552 177.143 7.536 177.335 7.536C177.943 7.536 178.471 7.656 178.919 7.896C179.367 8.12 179.615 8.56 179.663 9.216H182.903C182.839 8.448 182.639 7.816 182.303 7.32C181.983 6.808 181.575 6.4 181.079 6.096C180.583 5.792 180.015 5.576 179.375 5.448C178.751 5.32 178.103 5.256 177.431 5.256C176.759 5.256 176.103 5.32 175.463 5.448C174.823 5.56 174.247 5.768 173.735 6.072C173.223 6.36 172.807 6.76 172.487 7.272C172.183 7.784 172.031 8.44 172.031 9.24C172.031 9.784 172.143 10.248 172.367 10.632C172.591 11 172.887 11.312 173.255 11.568C173.623 11.808 174.039 12.008 174.503 12.168C174.983 12.312 175.471 12.44 175.967 12.552C177.183 12.808 178.127 13.064 178.799 13.32C179.487 13.576 179.831 13.96 179.831 14.472C179.831 14.776 179.759 15.032 179.615 15.24C179.471 15.432 179.287 15.592 179.063 15.72C178.855 15.832 178.615 15.92 178.343 15.984C178.087 16.032 177.839 16.056 177.599 16.056C177.263 16.056 176.935 16.016 176.615 15.936C176.311 15.856 176.039 15.736 175.799 15.576C175.559 15.4 175.359 15.184 175.199 14.928C175.055 14.656 174.983 14.336 174.983 13.968ZM187.874 13.968H184.634C184.666 14.8 184.85 15.496 185.186 16.056C185.538 16.6 185.978 17.04 186.506 17.376C187.05 17.712 187.666 17.952 188.354 18.096C189.042 18.24 189.746 18.312 190.466 18.312C191.17 18.312 191.858 18.24 192.53 18.096C193.218 17.968 193.826 17.736 194.354 17.4C194.882 17.064 195.306 16.624 195.626 16.08C195.962 15.52 196.13 14.832 196.13 14.016C196.13 13.44 196.018 12.96 195.794 12.576C195.57 12.176 195.274 11.848 194.906 11.592C194.538 11.32 194.114 11.104 193.634 10.944C193.17 10.784 192.69 10.648 192.194 10.536C191.714 10.424 191.242 10.32 190.778 10.224C190.314 10.128 189.898 10.024 189.53 9.912C189.178 9.784 188.89 9.624 188.666 9.432C188.442 9.24 188.33 8.992 188.33 8.688C188.33 8.432 188.394 8.232 188.522 8.088C188.65 7.928 188.802 7.808 188.978 7.728C189.17 7.648 189.378 7.6 189.602 7.584C189.826 7.552 190.034 7.536 190.226 7.536C190.834 7.536 191.362 7.656 191.81 7.896C192.258 8.12 192.506 8.56 192.554 9.216H195.794C195.73 8.448 195.53 7.816 195.194 7.32C194.874 6.808 194.466 6.4 193.97 6.096C193.474 5.792 192.906 5.576 192.266 5.448C191.642 5.32 190.994 5.256 190.322 5.256C189.65 5.256 188.994 5.32 188.354 5.448C187.714 5.56 187.138 5.768 186.626 6.072C186.114 6.36 185.698 6.76 185.378 7.272C185.074 7.784 184.922 8.44 184.922 9.24C184.922 9.784 185.034 10.248 185.258 10.632C185.482 11 185.778 11.312 186.146 11.568C186.514 11.808 186.93 12.008 187.394 12.168C187.874 12.312 188.362 12.44 188.858 12.552C190.074 12.808 191.018 13.064 191.69 13.32C192.378 13.576 192.722 13.96 192.722 14.472C192.722 14.776 192.65 15.032 192.506 15.24C192.362 15.432 192.178 15.592 191.954 15.72C191.746 15.832 191.506 15.92 191.234 15.984C190.978 16.032 190.73 16.056 190.49 16.056C190.154 16.056 189.826 16.016 189.506 15.936C189.202 15.856 188.93 15.736 188.69 15.576C188.45 15.4 188.25 15.184 188.09 14.928C187.946 14.656 187.874 14.336 187.874 13.968Z" fill="#28B4C9"></path>
</svg>