<?xml version="1.0" encoding="utf-8"?>
<!-- Generator: Adobe Illustrator 12.0.1, SVG Export Plug-In . SVG Version: 6.00 Build 51448)  --><svg enable-background="new 0 0 353.209 182.186" height="182.186" id="Layer_1" overflow="visible" space="preserve" version="1.1" viewBox="0 0 353.209 182.186" width="353.209" xmlns="http://www.w3.org/2000/svg" xmlns:xlink="http://www.w3.org/1999/xlink">
  <metadata>
    <rdf:RDF xmlns:cc="http://web.resource.org/cc/" xmlns:dc="http://purl.org/dc/elements/1.1/" xmlns:rdf="http://www.w3.org/1999/02/22-rdf-syntax-ns#">
      <cc:Work rdf:about="">
        <dc:title>open book</dc:title>
        <dc:description></dc:description>
        <dc:subject>
          <rdf:Bag>
            <rdf:li>open</rdf:li>
            <rdf:li>book</rdf:li>
          </rdf:Bag>
        </dc:subject>
        <dc:publisher>
          <cc:Agent rdf:about="http://www.openclipart.org/">
            <dc:title>Open Clip Art Library</dc:title>
          </cc:Agent>
        </dc:publisher>
        <dc:creator>
          <cc:Agent>
            <dc:title>John Olsen</dc:title>
          </cc:Agent>
        </dc:creator>
        <dc:rights>
          <cc:Agent>
            <dc:title></dc:title>
          </cc:Agent>
        </dc:rights>
        <dc:date></dc:date>
        <dc:format>image/svg+xml</dc:format>
        <dc:type rdf:resource="http://purl.org/dc/dcmitype/StillImage"/>
        <cc:license rdf:resource="http://web.resource.org/cc/PublicDomain"/>
        <dc:language>en</dc:language>
      </cc:Work>
      <cc:License rdf:about="http://web.resource.org/cc/PublicDomain">
        <cc:permits rdf:resource="http://web.resource.org/cc/Reproduction"/>
        <cc:permits rdf:resource="http://web.resource.org/cc/Distribution"/>
        <cc:permits rdf:resource="http://web.resource.org/cc/DerivativeWorks"/>
      </cc:License>
    </rdf:RDF>
  </metadata>
  <g>
    <path clip-rule="evenodd" d="M330.084,70.199c3.078-0.745,1.922,2.745,5,2c1.64,2.14-2.549,4.854-1,9.999   l-1.833-0.5l-1.167,1.5c-2.235-0.431-0.405-4.928-1-7l0.444-2.722l-2.444-1.277c0-0.333,0-0.667,0-1l1.5,0.5L330.084,70.199z" fill-rule="evenodd"/>
    <path clip-rule="evenodd" d="M332.917,83.697l1.167-1.5c6.869,4.129,12.841,9.156,18.997,13.999   c0.697,5.029-1.696,6.969-1,11.998c-30.646,2.781-58.67,6.19-87.988,9.999c-9.231,1.199-19.86,1.674-27.997,3.999   c-12.091,3.456-16.466,12.16-30.996,13.999c-7.098,0.897-12.355-1.795-19.997-1c-9.243,0.961-20.285,7.338-29.997,10.998   c-28.904,10.895-59.091,22.763-84.989,35.996c-7.776-7.976-12.236-18.503-17.998-27.997C35.429,126.686,17.111,98.331,0.126,70.199   c-0.895-3.228,3.261-1.405,4-3l1.5,0.5l1.5-0.5c20.867,34.459,42.363,68.289,63.992,101.987c0.595-2.071-1.236-6.568,1-6.999   l1.167,1.5l1.833-0.5c1.327,4.384-1.89,9.365-1,9.999c36.686-17.974,64.597-44.724,119.985-43.995   c-0.848-11.512,5.246-16.084,8.998-22.997c-1.583-0.083-3.813,0.481-3.999-1l0.5-1.499l-0.5-1.5c0.851,0.184,0.943-0.39,1-1   l1.356-1.214l-0.356-1.786c3.865,0.135,3.943,4.056,6.999,5l1.214,1.356l1.785-0.356c-0.668,4.331-4.627,5.371-4.999,9.998   c4.71-0.289,7.079-2.919,12.998-1.999c3.942,1.057,3.812,6.188,6,8.998c19.527-24.133,67.58-19.741,109.986-20.997   c-1.189-5.811-4.154-9.844-4-16.998L332.917,83.697z" fill-rule="evenodd"/>
    <path clip-rule="evenodd" d="M5.958,65.7l-1.833,0.5c0.083-1.583-0.481-3.814,1-4l1.167,1.5l1.833-0.5   c-0.083,1.583,0.481,3.813-1,4L5.958,65.7z" fill-rule="evenodd"/>
    <g>
      <path clip-rule="evenodd" d="    M332.251,81.698c0.222,0.667,0.444,1.333,0.666,2" fill="none" fill-rule="evenodd" stroke="#000000" stroke-linecap="round" stroke-width="3.1619"/>
      <path clip-rule="evenodd" d="    M5.625,67.7c0.04-0.667,0.184-1.333,0.333-2" fill="none" fill-rule="evenodd" stroke="#000000" stroke-linecap="round" stroke-width="3.0818"/>
      <path clip-rule="evenodd" d="    M6.292,63.7c0.844-4.937,1.585-11.267,6.732-13.599" fill="none" fill-rule="evenodd" stroke="#000000" stroke-linecap="round" stroke-width="3.3387"/>
      <path clip-rule="evenodd" d="    M13.024,50.102C44.302,29.346,88.078-3.624,124.468,26.99" fill="none" fill-rule="evenodd" stroke="#000000" stroke-linecap="round" stroke-width="2.2807"/>
      <path clip-rule="evenodd" d="    M124.468,26.99C146.001-8.966,193.063,8.878,227.442,1.248c33.809,23.763,69.094,45.902,102.143,70.452" fill="none" fill-rule="evenodd" stroke="#000000" stroke-linecap="round" stroke-width="2.328"/>
      <path clip-rule="evenodd" d="    M209.314,104.552c27.561-37.675,80.913-24.114,121.215-31.075" fill="none" fill-rule="evenodd" stroke="#000000" stroke-linecap="round" stroke-width="3.9899"/>
      <path clip-rule="evenodd" d="    M124.468,26.99c26.053,23.891,50.821,49.292,76.99,72.991" fill="none" fill-rule="evenodd" stroke="#000000" stroke-linecap="round" stroke-width="3.0382"/>
      <path clip-rule="evenodd" d="    M13.024,50.102c22.017,30.929,40.332,64.811,62.092,96.088" fill="none" fill-rule="evenodd" stroke="#000000" stroke-linecap="round" stroke-width="2.6156"/>
      <path clip-rule="evenodd" d="    M75.117,146.189c39.787-18.125,77.92-48.677,124.484-42.494" fill="none" fill-rule="evenodd" stroke="#000000" stroke-linecap="round" stroke-width="2.9805"/>
      <path clip-rule="evenodd" d="    M75.117,146.189c-0.556,5.836-0.93,11.693-1.833,17.498" fill="none" fill-rule="evenodd" stroke="#000000" stroke-linecap="round" stroke-width="3.7282"/>
    </g>
  </g>
</svg>
